<svg width="40" height="40" viewBox="0 0 40 40" fill="none" xmlns="http://www.w3.org/2000/svg">
<rect x="3" y="3" width="33.33" height="33.33" rx="2" fill="#A1A6B4"/>
<path d="M23.9403 14.9923C23.1517 14.2694 21.7687 13.4043 19.7183 13.4043C16.8309 13.4043 14.3802 15.2649 13.4945 17.8364C13.2761 18.5001 13.1427 19.2111 13.1427 19.9459C13.1427 20.6806 13.2761 21.3917 13.5066 22.0553C14.3802 24.6269 16.8309 26.4874 19.7183 26.4874C21.344 26.4874 22.5815 26.0489 23.5036 25.4208C24.9595 24.4254 25.6146 22.9441 25.7359 21.9605H19.7183V18.0024H29.9701C30.1277 18.666 30.2006 19.3059 30.2006 20.1829C30.2006 23.4299 29.0116 26.1675 26.9491 28.028C25.1414 29.6634 22.6664 30.6115 19.7183 30.6115C15.4477 30.6115 11.7595 28.2176 9.96398 24.7335C9.22395 23.2877 8.79932 21.6642 8.79932 19.9459C8.79932 18.2275 9.22395 16.604 9.96398 15.1582C11.7595 11.6741 15.4477 9.28027 19.7183 9.28027C22.6664 9.28027 25.1293 10.335 27.0219 12.0533L23.9403 14.9923Z" fill="#121723"/>
</svg>
