<svg width="109" height="23" viewBox="0 0 109 23" fill="none" xmlns="http://www.w3.org/2000/svg">
<path d="M0.98 3.28C3 1.9 5.26 1.21 7.76 1.21C9.9 1.21 11.63 1.71 12.95 2.71C14.27 3.69 14.93 5.1 14.93 6.94C14.93 8.48 14.42 9.8 13.4 10.9C12.4 11.98 11.03 13.04 9.29 14.08C9.15 14.16 8.89 14.31 8.51 14.53C8.15 14.75 7.89 14.91 7.73 15.01C7.59 15.09 7.36 15.23 7.04 15.43C6.72 15.63 6.48 15.78 6.32 15.88C6.18 15.98 5.98 16.13 5.72 16.33C5.48 16.51 5.3 16.67 5.18 16.81C5.06 16.93 4.92 17.09 4.76 17.29C4.6 17.47 4.48 17.64 4.4 17.8C4.34 17.96 4.28 18.14 4.22 18.34C4.16 18.54 4.13 18.74 4.13 18.94L15.08 18.91V22H0.29V20.44C0.29 19.32 0.44 18.33 0.74 17.47C1.06 16.59 1.61 15.79 2.39 15.07C3.19 14.33 3.81 13.81 4.25 13.51C4.69 13.19 5.47 12.7 6.59 12.04C6.69 11.96 6.77 11.9 6.83 11.86C6.91 11.82 6.99 11.78 7.07 11.74C8.75 10.76 9.83 10.05 10.31 9.61C11.11 8.83 11.51 7.96 11.51 7C11.51 6.12 11.15 5.45 10.43 4.99C9.73 4.53 8.74 4.3 7.46 4.3C5.24 4.3 3.08 5.06 0.98 6.58V3.28ZM25.7387 6.67C25.7387 5.19 26.3887 3.91 27.6887 2.83C28.9887 1.75 30.8887 1.21 33.3887 1.21C35.7287 1.21 37.5887 1.77 38.9687 2.89C40.3687 4.01 41.0887 5.34 41.1287 6.88C41.1687 8.88 40.2687 10.53 38.4287 11.83C40.7087 12.97 41.8487 14.58 41.8487 16.66C41.8487 18.26 41.1487 19.62 39.7487 20.74C38.3487 21.84 36.2687 22.39 33.5087 22.39C30.7687 22.39 28.6687 21.81 27.2087 20.65C25.7487 19.47 25.0187 18.04 25.0187 16.36C25.0187 15.36 25.3087 14.38 25.8887 13.42C26.4687 12.46 27.2887 11.66 28.3487 11.02C26.6087 9.9 25.7387 8.45 25.7387 6.67ZM33.7487 13.18C32.4287 12.78 31.4487 12.46 30.8087 12.22C30.0287 12.7 29.4287 13.28 29.0087 13.96C28.6087 14.62 28.4087 15.29 28.4087 15.97C28.4287 17.05 28.8787 17.91 29.7587 18.55C30.6587 19.17 31.9587 19.48 33.6587 19.48C35.0387 19.48 36.1687 19.23 37.0487 18.73C37.9487 18.23 38.3987 17.58 38.3987 16.78C38.3987 16.36 38.3187 15.99 38.1587 15.67C37.9987 15.33 37.7887 15.05 37.5287 14.83C37.2887 14.61 36.9687 14.4 36.5687 14.2C36.1687 14 35.7787 13.84 35.3987 13.72C35.0187 13.58 34.5687 13.43 34.0487 13.27C34.0087 13.25 33.9687 13.24 33.9287 13.24C33.9087 13.24 33.8787 13.23 33.8387 13.21C33.8187 13.19 33.7887 13.18 33.7487 13.18ZM37.7687 7.3C37.7687 6.38 37.3687 5.62 36.5687 5.02C35.7687 4.42 34.6587 4.12 33.2387 4.12C31.9587 4.12 30.9387 4.36 30.1787 4.84C29.4387 5.32 29.0687 5.92 29.0687 6.64C29.0687 7.32 29.2987 7.9 29.7587 8.38C30.2387 8.86 30.6987 9.19 31.1387 9.37C31.5787 9.55 32.2787 9.79 33.2387 10.09C33.3987 10.15 33.5187 10.19 33.5987 10.21C34.4387 10.43 35.1687 10.64 35.7887 10.84C37.1087 9.82 37.7687 8.64 37.7687 7.3ZM46.9883 19.48C45.4483 17.52 44.6783 14.96 44.6783 11.8C44.6783 8.64 45.4483 6.09 46.9883 4.15C48.5283 2.19 50.8083 1.21 53.8283 1.21C56.8483 1.21 59.1283 2.19 60.6683 4.15C62.2083 6.09 62.9783 8.64 62.9783 11.8C62.9783 14.96 62.2083 17.52 60.6683 19.48C59.1283 21.42 56.8483 22.39 53.8283 22.39C50.8083 22.39 48.5283 21.42 46.9883 19.48ZM53.8283 19.27C57.6283 19.27 59.5283 16.78 59.5283 11.8C59.5283 6.82 57.6283 4.33 53.8283 4.33C50.0283 4.33 48.1283 6.82 48.1283 11.8C48.1283 16.78 50.0283 19.27 53.8283 19.27ZM68.1699 19.48C66.6299 17.52 65.8599 14.96 65.8599 11.8C65.8599 8.64 66.6299 6.09 68.1699 4.15C69.7099 2.19 71.9899 1.21 75.0099 1.21C78.0299 1.21 80.3099 2.19 81.8499 4.15C83.3899 6.09 84.1599 8.64 84.1599 11.8C84.1599 14.96 83.3899 17.52 81.8499 19.48C80.3099 21.42 78.0299 22.39 75.0099 22.39C71.9899 22.39 69.7099 21.42 68.1699 19.48ZM75.0099 19.27C78.8099 19.27 80.7099 16.78 80.7099 11.8C80.7099 6.82 78.8099 4.33 75.0099 4.33C71.2099 4.33 69.3099 6.82 69.3099 11.8C69.3099 16.78 71.2099 19.27 75.0099 19.27ZM95.6014 22V0.579999H101.241C103.861 0.579999 105.801 1.11 107.061 2.17C108.341 3.23 108.981 4.77 108.981 6.79C108.981 8.15 108.671 9.32 108.051 10.3C107.431 11.26 106.511 12 105.291 12.52C104.091 13.04 102.601 13.3 100.821 13.3H98.3014V22H95.6014ZM92.9914 17.92V15.97H103.251V17.92H92.9914ZM92.9914 13.3V11.02H99.8614V13.3H92.9914ZM100.431 11.02C101.651 11.02 102.681 10.89 103.521 10.63C104.381 10.37 105.041 9.94 105.501 9.34C105.961 8.74 106.191 7.92 106.191 6.88C106.191 5.52 105.771 4.51 104.931 3.85C104.091 3.19 102.781 2.86 101.001 2.86H98.3014V11.02H100.431Z" fill="white"/>
</svg>
