<svg width="40" height="40" viewBox="0 0 40 40" fill="none" xmlns="http://www.w3.org/2000/svg">
<rect x="3" y="3" width="33.33" height="33.33" rx="2" fill="#A1A6B4"/>
<path d="M20.7487 26.332H19.3854C19.3854 26.332 16.3772 26.5131 13.7277 23.7545C10.8383 20.7461 8.28686 14.7765 8.28686 14.7765C8.28686 14.7765 8.13973 14.3853 8.29964 14.1959C8.47938 13.9831 8.96857 13.9695 8.96857 13.9695L12.2278 13.9482C12.2278 13.9482 12.5349 13.9994 12.7547 14.1608C12.9359 14.294 13.0373 14.543 13.0373 14.543C13.0373 14.543 13.5641 15.8752 14.2617 17.0804C15.6233 19.4331 16.2575 19.9477 16.7198 19.6957C17.3934 19.3283 17.1914 16.3698 17.1914 16.3698C17.1914 16.3698 17.2037 15.296 16.8522 14.8177C16.58 14.4475 16.0667 14.3391 15.84 14.3089C15.6566 14.2844 15.9576 13.8587 16.3478 13.6676C16.9343 13.3803 17.9699 13.3641 19.1938 13.3765C20.1473 13.3863 20.4219 13.4458 20.7946 13.5357C21.6597 13.7446 21.6327 14.4138 21.5745 15.8578L21.5745 15.8579C21.5571 16.2893 21.537 16.7899 21.537 17.3681C21.537 17.4983 21.5332 17.6371 21.5293 17.7798V17.7799C21.509 18.5193 21.4858 19.3656 21.9726 19.6802C22.2223 19.8415 22.8331 19.7042 24.3603 17.111C25.084 15.8819 25.627 14.4368 25.627 14.4368C25.627 14.4368 25.7453 14.1791 25.9297 14.0688C26.1181 13.9561 26.3726 13.9907 26.3726 13.9907L29.8023 13.9695C29.8023 13.9695 30.8329 13.8466 30.9997 14.3118C31.1747 14.8001 30.6146 15.9402 29.2135 17.8077C27.8827 19.5813 27.236 20.2332 27.2968 20.8106C27.3401 21.2221 27.7429 21.5959 28.5137 22.311L28.5668 22.3603C30.2548 23.9272 30.7051 24.7501 30.8121 24.9456C30.8207 24.9615 30.8271 24.9732 30.8318 24.9809C31.5873 26.2337 29.9939 26.332 29.9939 26.332L26.9477 26.3746C26.9477 26.3746 26.2931 26.5041 25.4317 25.9125C24.9813 25.6033 24.5409 25.0985 24.1214 24.6174L24.1214 24.6174C23.4798 23.8818 22.8868 23.2019 22.3806 23.3624C21.5317 23.6319 21.5583 25.4613 21.5583 25.4613C21.5583 25.4613 21.5645 25.852 21.371 26.0601C21.1605 26.2866 20.7487 26.332 20.7487 26.332Z" fill="#121723"/>
</svg>
